ffmpeg version 4.2.4-1ubuntu0.1 Copyright (c) 2000-2020 the FFmpeg developers
  built with gcc 9 (Ubuntu 9.3.0-10ubuntu2)
  configuration: --prefix=/usr --extra-version=1ubuntu0.1 --toolchain=hardened --libdir=/usr/lib/x86_64-linux-gnu --incdir=/usr/include/x86_64-linux-gnu --arch=amd64 --enable-gpl --disable-stripping --enable-avresample --disable-filter=resample --enable-avisynth --enable-gnutls --enable-ladspa --enable-libaom --enable-libass --enable-libbluray --enable-libbs2b --enable-libcaca --enable-libcdio --enable-libcodec2 --enable-libflite --enable-libfontconfig --enable-libfreetype --enable-libfribidi --enable-libgme --enable-libgsm --enable-libjack --enable-libmp3lame --enable-libmysofa --enable-libopenjpeg --enable-libopenmpt --enable-libopus --enable-libpulse --enable-librsvg --enable-librubberband --enable-libshine --enable-libsnappy --enable-libsoxr --enable-libspeex --enable-libssh --enable-libtheora --enable-libtwolame --enable-libvidstab --enable-libvorbis --enable-libvpx --enable-libwavpack --enable-libwebp --enable-libx265 --enable-libxml2 --enable-libxvid --enable-libzmq --enable-libzvbi --enable-lv2 --enable-omx --enable-openal --enable-opencl --enable-opengl --enable-sdl2 --enable-libdc1394 --enable-libdrm --enable-libiec61883 --enable-nvenc --enable-chromaprint --enable-frei0r --enable-libx264 --enable-shared
  libavutil      56. 31.100 / 56. 31.100
  libavcodec     58. 54.100 / 58. 54.100
  libavformat    58. 29.100 / 58. 29.100
  libavdevice    58.  8.100 / 58.  8.100
  libavfilter     7. 57.100 /  7. 57.100
  libavresample   4.  0.  0 /  4.  0.  0
  libswscale      5.  5.100 /  5.  5.100
  libswresample   3.  5.100 /  3.  5.100
  libpostproc    55.  5.100 / 55.  5.100
Input #0, image2, from '/tmp/jl_FLQa4M/proc1_%04d.png':
  Duration: 00:00:04.52, start: 0.000000, bitrate: N/A
    Stream #0:0: Video: png, rgb24(pc), 1200x600, 25 fps, 25 tbr, 25 tbn, 25 tbc
Stream mapping:
  Stream #0:0 -> #0:0 (png (native) -> h264 (libx264))
Press [q] to stop, [?] for help
[libx264 @ 0x55e2b66c6540] using cpu capabilities: MMX2 SSE2Fast SSSE3 SSE4.2 AVX FMA3 BMI2 AVX2 AVX512
[libx264 @ 0x55e2b66c6540] profile High, level 3.1
[libx264 @ 0x55e2b66c6540] 264 - core 155 r2917 0a84d98 - H.264/MPEG-4 AVC codec - Copyleft 2003-2018 - http://www.videolan.org/x264.html - options: cabac=1 ref=3 deblock=1:0:0 analyse=0x3:0x113 me=hex subme=7 psy=1 psy_rd=1.00:0.00 mixed_ref=1 me_range=16 chroma_me=1 trellis=1 8x8dct=1 cqm=0 deadzone=21,11 fast_pskip=1 chroma_qp_offset=-2 threads=3 lookahead_threads=1 sliced_threads=0 nr=0 decimate=1 interlaced=0 bluray_compat=0 constrained_intra=0 bframes=3 b_pyramid=2 b_adapt=1 b_bias=0 direct=1 weightb=1 open_gop=0 weightp=2 keyint=250 keyint_min=25 scenecut=40 intra_refresh=0 rc_lookahead=40 rc=crf mbtree=1 crf=23.0 qcomp=0.60 qpmin=0 qpmax=69 qpstep=4 ip_ratio=1.40 aq=1:1.00
Output #0, mp4, to 'vorticity_proc1.mp4':
  Metadata:
    encoder         : Lavf58.29.100
    Stream #0:0: Video: h264 (libx264) (avc1 / 0x31637661), yuv420p, 1200x600, q=-1--1, 25 fps, 12800 tbn, 25 tbc
    Metadata:
      encoder         : Lavc58.54.100 libx264
    Side data:
      cpb: bitrate max/min/avg: 0/0/0 buffer size: 0 vbv_delay: -1
frame=   29 fps=0.0 q=0.0 size=       0kB time=00:00:00.00 bitrate=N/A speed=   0x    frame=   47 fps= 41 q=0.0 size=       0kB time=00:00:00.00 bitrate=N/A speed=   0x    frame=   52 fps= 31 q=28.0 size=       0kB time=00:00:00.08 bitrate=   4.8kbits/s speed=0.0472x    frame=   57 fps= 25 q=28.0 size=       0kB time=00:00:00.28 bitrate=   1.4kbits/s speed=0.121x    frame=   61 fps= 21 q=28.0 size=       0kB time=00:00:00.44 bitrate=   0.9kbits/s speed=0.154x    frame=   65 fps= 19 q=28.0 size=       0kB time=00:00:00.60 bitrate=   0.6kbits/s speed=0.178x    frame=   70 fps= 18 q=28.0 size=       0kB time=00:00:00.80 bitrate=   0.5kbits/s speed=0.203x    frame=   76 fps= 17 q=28.0 size=       0kB time=00:00:01.04 bitrate=   0.4kbits/s speed=0.227x    frame=   79 fps= 15 q=28.0 size=       0kB time=00:00:01.16 bitrate=   0.3kbits/s speed=0.227x    frame=   83 fps= 14 q=28.0 size=       0kB time=00:00:01.32 bitrate=   0.3kbits/s speed=0.227x    frame=   87 fps= 14 q=28.0 size=       0kB time=00:00:01.48 bitrate=   0.3kbits/s speed=0.23x    frame=   91 fps= 13 q=28.0 size=       0kB time=00:00:01.64 bitrate=   0.2kbits/s speed=0.231x    frame=   95 fps= 12 q=28.0 size=       0kB time=00:00:01.80 bitrate=   0.2kbits/s speed=0.233x    frame=   99 fps= 12 q=28.0 size=       0kB time=00:00:01.96 bitrate=   0.2kbits/s speed=0.233x    frame=  103 fps= 11 q=28.0 size=       0kB time=00:00:02.12 bitrate=   0.2kbits/s speed=0.234x    frame=  107 fps= 11 q=28.0 size=       0kB time=00:00:02.28 bitrate=   0.2kbits/s speed=0.233x    frame=  111 fps= 11 q=28.0 size=       0kB time=00:00:02.44 bitrate=   0.2kbits/s speed=0.235x    frame=  114 fps= 10 q=28.0 size=       0kB time=00:00:02.56 bitrate=   0.1kbits/s speed=0.234x    frame=  118 fps= 10 q=28.0 size=       0kB time=00:00:02.72 bitrate=   0.1kbits/s speed=0.235x    frame=  122 fps= 10 q=28.0 size=       0kB time=00:00:02.88 bitrate=   0.1kbits/s speed=0.235x    frame=  126 fps=9.8 q=28.0 size=       0kB time=00:00:03.04 bitrate=   0.1kbits/s speed=0.236x    frame=  130 fps=9.6 q=28.0 size=     256kB time=00:00:03.20 bitrate= 655.5kbits/s speed=0.237x    frame=  134 fps=9.5 q=28.0 size=     256kB time=00:00:03.36 bitrate= 624.3kbits/s speed=0.239x    frame=  138 fps=9.4 q=28.0 size=     256kB time=00:00:03.52 bitrate= 595.9kbits/s speed=0.241x    frame=  145 fps=9.5 q=28.0 size=     256kB time=00:00:03.80 bitrate= 552.0kbits/s speed=0.25x    frame=  150 fps=9.4 q=28.0 size=     256kB time=00:00:04.00 bitrate= 524.4kbits/s speed=0.251x    frame=  154 fps=9.4 q=28.0 size=     256kB time=00:00:04.16 bitrate= 504.2kbits/s speed=0.253x    frame=  158 fps=9.3 q=28.0 size=     256kB time=00:00:04.32 bitrate= 485.5kbits/s speed=0.255x    frame=  162 fps=9.2 q=28.0 size=     256kB time=00:00:04.48 bitrate= 468.2kbits/s speed=0.255x    frame=  166 fps=9.2 q=28.0 size=     256kB time=00:00:04.64 bitrate= 452.0kbits/s speed=0.256x    frame=  171 fps=9.2 q=28.0 size=     256kB time=00:00:04.84 bitrate= 433.4kbits/s speed=0.26x    frame=  175 fps=9.1 q=28.0 size=     256kB time=00:00:05.00 bitrate= 419.5kbits/s speed=0.26x    frame=  180 fps=9.1 q=28.0 size=     256kB time=00:00:05.20 bitrate= 403.4kbits/s speed=0.263x    frame=  182 fps=9.0 q=28.0 size=     256kB time=00:00:05.28 bitrate= 397.3kbits/s speed=0.26x    frame=  186 fps=8.9 q=28.0 size=     256kB time=00:00:05.44 bitrate= 385.6kbits/s speed=0.26x    frame=  190 fps=8.8 q=28.0 size=     256kB time=00:00:05.60 bitrate= 374.6kbits/s speed=0.261x    frame=  195 fps=8.8 q=28.0 size=     256kB time=00:00:05.80 bitrate= 361.6kbits/s speed=0.262x    frame=  201 fps=8.9 q=28.0 size=     256kB time=00:00:06.04 bitrate= 347.3kbits/s speed=0.266x    frame=  205 fps=8.8 q=28.0 size=     256kB time=00:00:06.20 bitrate= 338.3kbits/s speed=0.266x    frame=  211 fps=8.8 q=28.0 size=     256kB time=00:00:06.44 bitrate= 325.7kbits/s speed=0.27x    frame=  214 fps=8.8 q=28.0 size=     256kB time=00:00:06.56 bitrate= 319.7kbits/s speed=0.269x    frame=  217 fps=8.7 q=28.0 size=     256kB time=00:00:06.68 bitrate= 314.0kbits/s speed=0.268x    frame=  223 fps=8.8 q=28.0 size=     512kB time=00:00:06.92 bitrate= 606.2kbits/s speed=0.272x    frame=  228 fps=8.7 q=28.0 size=     512kB time=00:00:07.12 bitrate= 589.1kbits/s speed=0.271x    frame=  233 fps=8.7 q=28.0 size=     512kB time=00:00:07.32 bitrate= 573.0kbits/s speed=0.273x    frame=  237 fps=8.7 q=28.0 size=     512kB time=00:00:07.48 bitrate= 560.8kbits/s speed=0.274x    frame=  243 fps=8.7 q=28.0 size=     512kB time=00:00:07.72 bitrate= 543.3kbits/s speed=0.277x    frame=  246 fps=8.7 q=28.0 size=     512kB time=00:00:07.84 bitrate= 535.0kbits/s speed=0.276x    frame=  251 fps=8.7 q=28.0 size=     512kB time=00:00:08.04 bitrate= 521.7kbits/s speed=0.278x    frame=  254 fps=8.6 q=28.0 size=     512kB time=00:00:08.16 bitrate= 514.0kbits/s speed=0.277x    frame=  258 fps=8.5 q=28.0 size=     512kB time=00:00:08.32 bitrate= 504.2kbits/s speed=0.276x    frame=  262 fps=8.5 q=28.0 size=     512kB time=00:00:08.48 bitrate= 494.7kbits/s speed=0.276x    frame=  266 fps=8.4 q=28.0 size=     512kB time=00:00:08.64 bitrate= 485.5kbits/s speed=0.274x    frame=  270 fps=8.4 q=28.0 size=     512kB time=00:00:08.80 bitrate= 476.7kbits/s speed=0.274x    frame=  274 fps=8.4 q=28.0 size=     512kB time=00:00:08.96 bitrate= 468.2kbits/s speed=0.274x    frame=  278 fps=8.4 q=28.0 size=     512kB time=00:00:09.12 bitrate= 459.9kbits/s speed=0.274x    frame=  282 fps=8.3 q=28.0 size=     512kB time=00:00:09.28 bitrate= 452.0kbits/s speed=0.274x    frame=  283 fps=7.3 q=-1.0 Lsize=     826kB time=00:00:11.20 bitrate= 604.0kbits/s speed=0.287x    
video:822kB audio:0kB subtitle:0kB other streams:0kB global headers:0kB muxing overhead: 0.500685%
[libx264 @ 0x55e2b66c6540] frame I:2     Avg QP:17.03  size: 38421
[libx264 @ 0x55e2b66c6540] frame P:73    Avg QP:25.14  size:  8194
[libx264 @ 0x55e2b66c6540] frame B:208   Avg QP:18.90  size:   797
[libx264 @ 0x55e2b66c6540] consecutive B-frames:  0.7%  2.8%  3.2% 93.3%
[libx264 @ 0x55e2b66c6540] mb I  I16..4: 33.0% 39.9% 27.1%
[libx264 @ 0x55e2b66c6540] mb P  I16..4:  0.3%  1.5%  0.9%  P16..4:  5.8%  6.7%  4.5%  0.0%  0.0%    skip:80.1%
[libx264 @ 0x55e2b66c6540] mb B  I16..4:  0.1%  0.1%  0.0%  B16..8:  6.9%  1.0%  0.4%  direct: 0.3%  skip:91.2%  L0:44.6% L1:47.3% BI: 8.0%
[libx264 @ 0x55e2b66c6540] 8x8 transform intra:46.1% inter:39.0%
[libx264 @ 0x55e2b66c6540] coded y,uvDC,uvAC intra: 39.8% 41.5% 33.4% inter: 2.7% 2.2% 0.7%
[libx264 @ 0x55e2b66c6540] i16 v,h,dc,p: 70% 17% 10%  3%
[libx264 @ 0x55e2b66c6540] i8 v,h,dc,ddl,ddr,vr,hd,vl,hu: 23% 12% 34%  5%  5%  4%  6%  4%  6%
[libx264 @ 0x55e2b66c6540] i4 v,h,dc,ddl,ddr,vr,hd,vl,hu: 29% 18% 17%  5%  6%  5%  9%  4%  8%
[libx264 @ 0x55e2b66c6540] i8c dc,h,v,p: 70% 13% 12%  5%
[libx264 @ 0x55e2b66c6540] Weighted P-Frames: Y:0.0% UV:0.0%
[libx264 @ 0x55e2b66c6540] ref P L0: 69.2% 15.2% 10.6%  4.9%
[libx264 @ 0x55e2b66c6540] ref B L0: 85.9% 11.3%  2.7%
[libx264 @ 0x55e2b66c6540] ref B L1: 98.1%  1.9%
[libx264 @ 0x55e2b66c6540] kb/s:594.18
